<?xml version="1.0" encoding="utf-8"?>
<!-- Generator: Adobe Illustrator 17.0.0, SVG Export Plug-In . SVG Version: 6.00 Build 0)  -->
<!DOCTYPE svg PUBLIC "-//W3C//DTD SVG 1.1//EN" "http://www.w3.org/Graphics/SVG/1.1/DTD/svg11.dtd">
<svg version="1.1" xmlns="http://www.w3.org/2000/svg" xmlns:xlink="http://www.w3.org/1999/xlink" x="0px" y="0px" width="500px"
	 height="200px" viewBox="0 0 500 200" enable-background="new 0 0 500 200" xml:space="preserve">
<g id="Layer_1">
	<g>
		<path fill="#FFFFFF" stroke="#CEC67D" stroke-miterlimit="10" d="M152.027,38.119c-1.709,0.61-5.084,1.612-9.071,1.612
			c-4.47,0-8.151-1.132-11.044-3.877c-2.542-2.439-4.119-6.359-4.119-10.932c0.044-8.754,6.092-15.157,15.996-15.157
			c3.418,0,6.092,0.74,7.362,1.35l-0.92,3.092c-1.578-0.697-3.55-1.263-6.53-1.263c-7.187,0-11.876,4.443-11.876,11.804
			c0,7.448,4.514,11.847,11.394,11.847c2.498,0,4.207-0.348,5.084-0.784v-8.755h-6.004v-3.049h9.729V38.119z"/>
		<path fill="#FFFFFF" stroke="#CEC67D" stroke-miterlimit="10" d="M157.858,10.461c1.929-0.392,4.689-0.61,7.319-0.61
			c4.076,0,6.705,0.74,8.546,2.396c1.49,1.306,2.323,3.31,2.323,5.575c0,3.876-2.454,6.446-5.566,7.491v0.13
			c2.279,0.784,3.637,2.875,4.339,5.924c0.964,4.094,1.665,6.926,2.279,8.058h-3.944c-0.482-0.827-1.14-3.354-1.972-7.013
			c-0.877-4.051-2.454-5.575-5.916-5.705h-3.593v12.718h-3.813V10.461z M161.671,23.833h3.9c4.075,0,6.661-2.221,6.661-5.575
			c0-3.789-2.761-5.444-6.793-5.487c-1.84,0-3.155,0.174-3.768,0.348V23.833z"/>
		<path fill="#FFFFFF" stroke="#CEC67D" stroke-miterlimit="10" d="M186.433,30.192l-3.068,9.234h-3.944l10.036-29.356h4.602
			l10.079,29.356h-4.075l-3.156-9.234H186.433z M196.118,27.23l-2.892-8.45c-0.657-1.917-1.096-3.659-1.534-5.357h-0.088
			c-0.438,1.742-0.92,3.528-1.49,5.313l-2.892,8.493H196.118z"/>
		<path fill="#FFFFFF" stroke="#CEC67D" stroke-miterlimit="10" d="M207.953,34.809c1.709,1.045,4.207,1.916,6.837,1.916
			c3.9,0,6.179-2.047,6.179-5.009c0-2.744-1.578-4.312-5.566-5.837c-4.82-1.699-7.8-4.181-7.8-8.319
			c0-4.573,3.812-7.971,9.554-7.971c3.023,0,5.215,0.697,6.53,1.438l-1.052,3.092c-0.964-0.523-2.936-1.394-5.609-1.394
			c-4.032,0-5.565,2.396-5.565,4.399c0,2.744,1.796,4.094,5.872,5.662c4.995,1.916,7.537,4.312,7.537,8.624
			c0,4.529-3.374,8.45-10.342,8.45c-2.849,0-5.96-0.827-7.538-1.873L207.953,34.809z"/>
		<path fill="#FFFFFF" stroke="#CEC67D" stroke-miterlimit="10" d="M229.559,34.809c1.709,1.045,4.207,1.916,6.837,1.916
			c3.9,0,6.179-2.047,6.179-5.009c0-2.744-1.578-4.312-5.566-5.837c-4.82-1.699-7.8-4.181-7.8-8.319
			c0-4.573,3.812-7.971,9.554-7.971c3.023,0,5.215,0.697,6.53,1.438l-1.052,3.092c-0.964-0.523-2.936-1.394-5.609-1.394
			c-4.032,0-5.566,2.396-5.566,4.399c0,2.744,1.797,4.094,5.873,5.662c4.995,1.916,7.537,4.312,7.537,8.624
			c0,4.529-3.374,8.45-10.342,8.45c-2.849,0-5.96-0.827-7.538-1.873L229.559,34.809z"/>
		<path fill="#FFFFFF" stroke="#CEC67D" stroke-miterlimit="10" d="M264.797,10.07v12.282h14.286V10.07h3.857v29.356h-3.857V25.662
			h-14.286v13.764h-3.813V10.07H264.797z"/>
		<path fill="#FFFFFF" stroke="#CEC67D" stroke-miterlimit="10" d="M293.372,10.07v17.379c0,6.576,2.936,9.364,6.881,9.364
			c4.383,0,7.188-2.875,7.188-9.364V10.07h3.856v17.117c0,9.016-4.777,12.719-11.175,12.719c-6.047,0-10.605-3.441-10.605-12.544
			V10.07H293.372z"/>
		<path fill="#FFFFFF" stroke="#CEC67D" stroke-miterlimit="10" d="M317.916,39.426V10.07h4.163l9.467,14.852
			c2.191,3.441,3.899,6.533,5.302,9.539l0.087-0.043c-0.35-3.92-0.437-7.491-0.437-12.065V10.07h3.594v29.356h-3.857l-9.378-14.896
			c-2.059-3.267-4.031-6.62-5.521-9.8l-0.132,0.044c0.219,3.702,0.307,7.23,0.307,12.108v12.544H317.916z"/>
		<path fill="#FFFFFF" stroke="#CEC67D" stroke-miterlimit="10" d="M352.362,13.293h-8.983V10.07h21.867v3.223h-9.027v26.133h-3.857
			V13.293z"/>
		<path fill="#FFFFFF" stroke="#CEC67D" stroke-miterlimit="10" d="M376.951,37.205c0-1.568,1.096-2.701,2.586-2.701
			c1.577,0,2.585,1.132,2.585,2.701c0,1.524-1.008,2.701-2.585,2.701C378.002,39.905,376.951,38.729,376.951,37.205z
			 M378.047,30.976l-0.614-20.907h4.206l-0.613,20.907H378.047z"/>
		<path fill="#FFFFFF" stroke="#CEC67D" stroke-miterlimit="10" d="M68.69,90.739c-1.402,0.697-4.207,1.394-7.801,1.394
			c-8.326,0-14.593-5.227-14.593-14.853c0-9.19,6.267-15.419,15.426-15.419c3.681,0,6.004,0.784,7.012,1.307l-0.92,3.092
			c-1.446-0.697-3.506-1.219-5.96-1.219c-6.924,0-11.526,4.399-11.526,12.108c0,7.187,4.163,11.804,11.35,11.804
			c2.323,0,4.689-0.479,6.223-1.22L68.69,90.739z"/>
		<path fill="#FFFFFF" stroke="#CEC67D" stroke-miterlimit="10" d="M73.337,60.773h3.857v13.154h0.088
			c0.613-1.089,1.578-2.047,2.761-2.701c1.14-0.653,2.498-1.089,3.944-1.089c2.848,0,7.406,1.742,7.406,9.016v12.544h-3.857V79.589
			c0-3.397-1.271-6.272-4.909-6.272c-2.498,0-4.47,1.742-5.171,3.833c-0.219,0.523-0.263,1.089-0.263,1.829v12.718h-3.857V60.773z"
			/>
		<path fill="#FFFFFF" stroke="#CEC67D" stroke-miterlimit="10" d="M116.856,80.983c0,7.796-5.434,11.194-10.561,11.194
			c-5.74,0-10.167-4.181-10.167-10.845c0-7.057,4.646-11.194,10.518-11.194C112.737,70.137,116.856,74.536,116.856,80.983z
			 M100.028,81.201c0,4.617,2.674,8.101,6.443,8.101c3.681,0,6.442-3.441,6.442-8.188c0-3.572-1.797-8.102-6.354-8.102
			C102,73.012,100.028,77.193,100.028,81.201z"/>
		<path fill="#FFFFFF" stroke="#CEC67D" stroke-miterlimit="10" d="M140.917,80.983c0,7.796-5.434,11.194-10.561,11.194
			c-5.74,0-10.167-4.181-10.167-10.845c0-7.057,4.645-11.194,10.518-11.194C136.798,70.137,140.917,74.536,140.917,80.983z
			 M124.089,81.201c0,4.617,2.674,8.101,6.443,8.101c3.681,0,6.442-3.441,6.442-8.188c0-3.572-1.797-8.102-6.354-8.102
			C126.061,73.012,124.089,77.193,124.089,81.201z"/>
		<path fill="#FFFFFF" stroke="#CEC67D" stroke-miterlimit="10" d="M145.258,87.778c1.14,0.74,3.156,1.524,5.084,1.524
			c2.805,0,4.119-1.394,4.119-3.136c0-1.829-1.095-2.831-3.944-3.877c-3.812-1.351-5.609-3.441-5.609-5.968
			c0-3.397,2.761-6.185,7.319-6.185c2.147,0,4.032,0.61,5.215,1.307l-0.964,2.788c-0.833-0.523-2.366-1.22-4.338-1.22
			c-2.279,0-3.55,1.307-3.55,2.875c0,1.742,1.271,2.527,4.032,3.572c3.681,1.394,5.565,3.223,5.565,6.359
			c0,3.702-2.892,6.315-7.932,6.315c-2.323,0-4.47-0.566-5.96-1.438L145.258,87.778z"/>
		<path fill="#FFFFFF" stroke="#CEC67D" stroke-miterlimit="10" d="M165.287,81.854c0.088,5.183,3.418,7.317,7.275,7.317
			c2.761,0,4.426-0.479,5.872-1.089l0.657,2.744c-1.358,0.61-3.681,1.307-7.055,1.307c-6.53,0-10.43-4.268-10.43-10.628
			s3.769-11.368,9.948-11.368c6.924,0,8.764,6.055,8.764,9.93c0,0.784-0.088,1.394-0.132,1.786H165.287z M176.593,79.11
			c0.043-2.439-1.008-6.228-5.347-6.228c-3.9,0-5.609,3.571-5.916,6.228H176.593z"/>
		<path fill="#FFFFFF" stroke="#CEC67D" stroke-miterlimit="10" d="M199.033,64.562v6.055h5.522v2.918h-5.522v11.368
			c0,2.614,0.745,4.094,2.892,4.094c1.008,0,1.753-0.131,2.235-0.261l0.175,2.875c-0.745,0.305-1.928,0.523-3.418,0.523
			c-1.797,0-3.243-0.566-4.164-1.612c-1.095-1.132-1.49-3.005-1.49-5.488V73.535h-3.286v-2.918h3.286v-5.053L199.033,64.562z"/>
		<path fill="#FFFFFF" stroke="#CEC67D" stroke-miterlimit="10" d="M208.895,60.773h3.857v13.154h0.088
			c0.613-1.089,1.578-2.047,2.761-2.701c1.14-0.653,2.498-1.089,3.944-1.089c2.848,0,7.406,1.742,7.406,9.016v12.544h-3.857V79.589
			c0-3.397-1.271-6.272-4.909-6.272c-2.498,0-4.47,1.742-5.171,3.833c-0.219,0.523-0.263,1.089-0.263,1.829v12.718h-3.857V60.773z"
			/>
		<path fill="#FFFFFF" stroke="#CEC67D" stroke-miterlimit="10" d="M235.366,81.854c0.088,5.183,3.418,7.317,7.275,7.317
			c2.761,0,4.426-0.479,5.872-1.089l0.657,2.744c-1.358,0.61-3.681,1.307-7.055,1.307c-6.53,0-10.43-4.268-10.43-10.628
			s3.769-11.368,9.948-11.368c6.924,0,8.764,6.055,8.764,9.93c0,0.784-0.088,1.394-0.132,1.786H235.366z M246.673,79.11
			c0.043-2.439-1.008-6.228-5.347-6.228c-3.9,0-5.609,3.571-5.916,6.228H246.673z"/>
		<path fill="#FFFFFF" stroke="#CEC67D" stroke-miterlimit="10" d="M268.411,62.341v12.282h14.287V62.341h3.856v29.356h-3.856
			V77.934h-14.287v13.764h-3.812V62.341H268.411z"/>
		<path fill="#FFFFFF" stroke="#CEC67D" stroke-miterlimit="10" d="M310.791,85.948c0,2.177,0.043,4.094,0.175,5.749h-3.419
			l-0.219-3.441h-0.088c-1.008,1.699-3.242,3.92-7.011,3.92c-3.33,0-7.318-1.829-7.318-9.234V70.617h3.856V82.29
			c0,4.007,1.226,6.707,4.733,6.707c2.585,0,4.382-1.786,5.082-3.484c0.22-0.566,0.352-1.264,0.352-1.96V70.617h3.856V85.948z"/>
		<path fill="#FFFFFF" stroke="#CEC67D" stroke-miterlimit="10" d="M317.191,76.322c0-2.177-0.043-3.964-0.175-5.705h3.419
			l0.219,3.484h0.088c1.051-2.003,3.506-3.964,7.011-3.964c2.936,0,7.495,1.742,7.495,8.972v12.588h-3.857V79.545
			c0-3.397-1.27-6.229-4.907-6.229c-2.543,0-4.515,1.786-5.172,3.92c-0.175,0.479-0.262,1.132-0.262,1.786v12.675h-3.857V76.322z"/>
		<path fill="#FFFFFF" stroke="#CEC67D" stroke-miterlimit="10" d="M345.986,64.562v6.055h5.521v2.918h-5.521v11.368
			c0,2.614,0.744,4.094,2.892,4.094c1.008,0,1.753-0.131,2.236-0.261l0.175,2.875c-0.746,0.305-1.929,0.523-3.419,0.523
			c-1.797,0-3.243-0.566-4.163-1.612c-1.096-1.132-1.49-3.005-1.49-5.488V73.535h-3.287v-2.918h3.287v-5.053L345.986,64.562z"/>
		<path fill="#FFFFFF" stroke="#CEC67D" stroke-miterlimit="10" d="M369.084,65.564H360.1v-3.223h21.867v3.223h-9.027v26.133h-3.857
			V65.564z"/>
		<path fill="#FFFFFF" stroke="#CEC67D" stroke-miterlimit="10" d="M384.775,70.617l4.645,12.456
			c0.482,1.394,1.008,3.049,1.358,4.312h0.088c0.394-1.263,0.833-2.875,1.358-4.399l4.208-12.369h4.075l-5.785,15.026
			c-2.761,7.23-4.645,10.932-7.275,13.197c-1.884,1.655-3.769,2.309-4.733,2.483l-0.963-3.223c0.963-0.305,2.234-0.914,3.374-1.873
			c1.051-0.828,2.366-2.309,3.243-4.268c0.175-0.392,0.307-0.697,0.307-0.915c0-0.218-0.088-0.523-0.263-1.002l-7.845-19.425
			H384.775z"/>
		<path fill="#FFFFFF" stroke="#CEC67D" stroke-miterlimit="10" d="M404.014,77.498c0-2.7-0.087-4.878-0.175-6.881h3.462
			l0.175,3.615h0.088c1.577-2.57,4.076-4.094,7.538-4.094c5.127,0,8.983,4.312,8.983,10.715c0,7.578-4.645,11.325-9.641,11.325
			c-2.805,0-5.259-1.22-6.53-3.311h-0.087v11.456h-3.814V77.498z M407.828,83.117c0,0.566,0.087,1.089,0.175,1.568
			c0.701,2.657,3.023,4.487,5.785,4.487c4.075,0,6.442-3.311,6.442-8.145c0-4.225-2.236-7.84-6.312-7.84
			c-2.629,0-5.082,1.873-5.828,4.747c-0.132,0.479-0.262,1.046-0.262,1.568V83.117z"/>
		<path fill="#FFFFFF" stroke="#CEC67D" stroke-miterlimit="10" d="M431.099,81.854c0.088,5.183,3.419,7.317,7.276,7.317
			c2.76,0,4.425-0.479,5.872-1.089l0.657,2.744c-1.358,0.61-3.681,1.307-7.056,1.307c-6.529,0-10.43-4.268-10.43-10.628
			s3.769-11.368,9.947-11.368c6.924,0,8.766,6.055,8.766,9.93c0,0.784-0.088,1.394-0.132,1.786H431.099z M442.406,79.11
			c0.043-2.439-1.008-6.228-5.346-6.228c-3.901,0-5.609,3.571-5.916,6.228H442.406z"/>
		<path fill="#FFFFFF" stroke="#CEC67D" stroke-miterlimit="10" d="M459.28,74.101c0-1.612,1.095-2.744,2.629-2.744
			c1.533,0,2.541,1.132,2.585,2.744c0,1.525-1.008,2.701-2.629,2.701C460.331,76.801,459.28,75.625,459.28,74.101z M459.28,89.476
			c0-1.612,1.095-2.744,2.629-2.744c1.533,0,2.541,1.133,2.585,2.744c0,1.524-1.008,2.701-2.629,2.701
			C460.331,92.177,459.28,91,459.28,89.476z"/>
	</g>
</g>
<g id="Layer_2">
	<rect x="59.154" y="123.234" fill="#EFE5A4" stroke="#CEC67D" stroke-miterlimit="10" width="149.435" height="47.921"/>
	<rect x="265.852" y="123.234" fill="#EFE5A4" stroke="#CEC67D" stroke-miterlimit="10" width="147.412" height="47.921"/>
</g>
<g id="Layer_3">
	<g>
		<path fill="#FFFFFF" d="M87.951,138.933h1.886v13.807h6.242v1.677h-8.128V138.933z"/>
		<path fill="#FFFFFF" d="M98.875,149.225c0.043,2.734,1.69,3.859,3.598,3.859c1.365,0,2.189-0.252,2.904-0.574l0.325,1.448
			c-0.672,0.322-1.821,0.689-3.49,0.689c-3.23,0-5.159-2.251-5.159-5.606c0-3.354,1.864-5.995,4.92-5.995
			c3.425,0,4.335,3.193,4.335,5.238c0,0.413-0.043,0.735-0.065,0.942H98.875z M104.467,147.777c0.022-1.286-0.498-3.285-2.644-3.285
			c-1.929,0-2.774,1.884-2.927,3.285H104.467z"/>
		<path fill="#FFFFFF" d="M109.41,143.298l2.059,6.249c0.347,1.01,0.628,1.929,0.845,2.849h0.065
			c0.238-0.92,0.542-1.839,0.889-2.849l2.037-6.249h1.994l-4.118,11.119h-1.821l-3.988-11.119H109.41z"/>
		<path fill="#FFFFFF" d="M120.052,143.298l2.298,6.571c0.238,0.735,0.499,1.608,0.672,2.273h0.043
			c0.195-0.666,0.412-1.516,0.672-2.321l2.081-6.523h2.016l-2.861,7.926c-1.365,3.813-2.298,5.766-3.598,6.96
			c-0.932,0.874-1.864,1.218-2.34,1.309l-0.477-1.699c0.477-0.161,1.105-0.483,1.668-0.988c0.52-0.437,1.17-1.218,1.604-2.253
			c0.087-0.207,0.152-0.368,0.152-0.481c0-0.115-0.043-0.276-0.13-0.528l-3.88-10.246H120.052z"/>
		<path fill="#FFFFFF" d="M134.228,138.933h7.868v1.677h-5.982v5.146h5.527v1.653h-5.527v7.007h-1.886V138.933z"/>
		<path fill="#FFFFFF" d="M144.35,138.106h1.908v16.311h-1.908V138.106z"/>
		<path fill="#FFFFFF" d="M151.589,140.173c0.022,0.689-0.455,1.241-1.214,1.241c-0.672,0-1.149-0.552-1.149-1.241
			c0-0.712,0.499-1.264,1.192-1.264C151.134,138.909,151.589,139.461,151.589,140.173z M149.465,154.417v-11.119h1.908v11.119
			H149.465z"/>
		<path fill="#FFFFFF" d="M163.576,143.298c-0.043,0.803-0.087,1.699-0.087,3.056v6.455c0,2.549-0.476,4.111-1.495,5.077
			c-1.019,1.011-2.492,1.333-3.815,1.333c-1.257,0-2.644-0.322-3.489-0.92l0.476-1.54c0.694,0.46,1.778,0.874,3.078,0.874
			c1.951,0,3.382-1.08,3.382-3.882v-1.241h-0.043c-0.586,1.035-1.713,1.861-3.338,1.861c-2.601,0-4.465-2.344-4.465-5.422
			c0-3.767,2.319-5.903,4.725-5.903c1.821,0,2.818,1.01,3.273,1.929h0.043l0.086-1.677H163.576z M161.603,147.685
			c0-0.344-0.022-0.644-0.109-0.918c-0.346-1.172-1.279-2.137-2.666-2.137c-1.821,0-3.122,1.631-3.122,4.204
			c0,2.183,1.041,3.998,3.1,3.998c1.17,0,2.232-0.781,2.644-2.067c0.109-0.345,0.152-0.735,0.152-1.08V147.685z"/>
		<path fill="#FFFFFF" d="M166.654,138.106h1.908v6.938h0.043c0.303-0.576,0.78-1.08,1.365-1.425
			c0.563-0.345,1.235-0.574,1.95-0.574c1.409,0,3.664,0.918,3.664,4.755v6.616h-1.908v-6.386c0-1.792-0.628-3.308-2.428-3.308
			c-1.235,0-2.211,0.918-2.558,2.021c-0.108,0.276-0.13,0.574-0.13,0.965v6.708h-1.908V138.106z"/>
		<path fill="#FFFFFF" d="M180.894,140.105v3.193h2.731v1.538h-2.731v5.996c0,1.379,0.369,2.16,1.431,2.16
			c0.499,0,0.867-0.069,1.105-0.137l0.087,1.516c-0.369,0.161-0.954,0.276-1.691,0.276c-0.889,0-1.604-0.3-2.059-0.85
			c-0.542-0.598-0.737-1.585-0.737-2.895v-6.066h-1.626v-1.538h1.626v-2.665L180.894,140.105z"/>
		<path fill="#FFFFFF" d="M275.029,140.633h-4.443v-1.701h10.816v1.701h-4.465v13.783h-1.908V140.633z"/>
		<path fill="#FFFFFF" d="M290.916,148.766c0,4.111-2.687,5.903-5.223,5.903c-2.839,0-5.028-2.205-5.028-5.72
			c0-3.722,2.298-5.903,5.202-5.903C288.878,143.045,290.916,145.365,290.916,148.766z M282.593,148.88
			c0,2.436,1.323,4.274,3.187,4.274c1.821,0,3.185-1.814,3.185-4.319c0-1.884-0.888-4.272-3.142-4.272
			S282.593,146.767,282.593,148.88z"/>
		<path fill="#FFFFFF" d="M295.62,140.105v3.193h2.731v1.538h-2.731v5.996c0,1.379,0.369,2.16,1.431,2.16
			c0.498,0,0.867-0.069,1.105-0.137l0.087,1.516c-0.369,0.161-0.954,0.276-1.69,0.276c-0.889,0-1.605-0.3-2.059-0.85
			c-0.543-0.598-0.738-1.585-0.738-2.895v-6.066h-1.626v-1.538h1.626v-2.665L295.62,140.105z"/>
		<path fill="#FFFFFF" d="M306.307,154.417l-0.153-1.401h-0.065c-0.585,0.873-1.713,1.653-3.208,1.653
			c-2.124,0-3.208-1.585-3.208-3.193c0-2.688,2.254-4.158,6.308-4.135v-0.23c0-0.918-0.238-2.573-2.384-2.573
			c-0.976,0-1.995,0.322-2.731,0.827l-0.433-1.332c0.867-0.598,2.124-0.988,3.446-0.988c3.208,0,3.988,2.319,3.988,4.548v4.158
			c0,0.964,0.043,1.906,0.174,2.665H306.307z M306.025,148.742c-2.081-0.046-4.444,0.344-4.444,2.504
			c0,1.309,0.823,1.931,1.798,1.931c1.366,0,2.233-0.92,2.536-1.861c0.066-0.207,0.109-0.437,0.109-0.644V148.742z"/>
		<path fill="#FFFFFF" d="M310.944,138.106h1.908v16.311h-1.908V138.106z"/>
		<path fill="#FFFFFF" d="M316.059,138.106h1.908v16.311h-1.908V138.106z"/>
		<path fill="#FFFFFF" d="M321.869,143.298l2.298,6.571c0.238,0.735,0.498,1.608,0.672,2.273h0.043
			c0.195-0.666,0.411-1.516,0.672-2.321l2.08-6.523h2.016l-2.861,7.926c-1.365,3.813-2.297,5.766-3.598,6.96
			c-0.931,0.874-1.864,1.218-2.341,1.309l-0.477-1.699c0.477-0.161,1.105-0.483,1.669-0.988c0.52-0.437,1.171-1.218,1.605-2.253
			c0.087-0.207,0.152-0.368,0.152-0.481c0-0.115-0.043-0.276-0.13-0.528l-3.88-10.246H321.869z"/>
		<path fill="#FFFFFF" d="M336.044,139.139c0.954-0.207,2.32-0.322,3.62-0.322c2.016,0,3.316,0.391,4.226,1.264
			c0.738,0.689,1.149,1.746,1.149,2.941c0,2.045-1.213,3.4-2.752,3.952v0.068c1.126,0.415,1.8,1.517,2.146,3.125
			c0.477,2.16,0.823,3.652,1.126,4.25h-1.95c-0.238-0.437-0.564-1.769-0.976-3.699c-0.433-2.136-1.213-2.941-2.926-3.009h-1.777
			v6.708h-1.886V139.139z M337.93,146.193h1.929c2.016,0,3.295-1.172,3.295-2.941c0-1.999-1.365-2.873-3.359-2.895
			c-0.91,0-1.561,0.092-1.864,0.183V146.193z"/>
		<path fill="#FFFFFF" d="M353.71,154.417l-0.153-1.401h-0.065c-0.585,0.873-1.713,1.653-3.208,1.653
			c-2.124,0-3.208-1.585-3.208-3.193c0-2.688,2.254-4.158,6.308-4.135v-0.23c0-0.918-0.238-2.573-2.384-2.573
			c-0.976,0-1.994,0.322-2.731,0.827l-0.433-1.332c0.867-0.598,2.124-0.988,3.446-0.988c3.208,0,3.988,2.319,3.988,4.548v4.158
			c0,0.964,0.043,1.906,0.174,2.665H353.71z M353.428,148.742c-2.081-0.046-4.443,0.344-4.443,2.504
			c0,1.309,0.823,1.931,1.798,1.931c1.366,0,2.233-0.92,2.536-1.861c0.066-0.207,0.109-0.437,0.109-0.644V148.742z"/>
		<path fill="#FFFFFF" d="M358.348,146.307c0-1.148-0.021-2.09-0.087-3.009h1.692l0.108,1.838h0.043
			c0.52-1.057,1.734-2.09,3.467-2.09c1.453,0,3.707,0.918,3.707,4.731v6.64h-1.908v-6.41c0-1.792-0.628-3.285-2.428-3.285
			c-1.257,0-2.233,0.942-2.557,2.067c-0.087,0.252-0.13,0.598-0.13,0.942v6.686h-1.908V146.307z"/>
		<path fill="#FFFFFF" d="M379.438,138.106v13.439c0,0.988,0.022,2.113,0.087,2.871h-1.713l-0.086-1.929h-0.043
			c-0.585,1.24-1.864,2.182-3.577,2.182c-2.536,0-4.487-2.273-4.487-5.651c-0.021-3.699,2.146-5.973,4.704-5.973
			c1.603,0,2.687,0.803,3.164,1.699h0.043v-6.639H379.438z M377.532,147.824c0-0.254-0.022-0.598-0.087-0.85
			c-0.282-1.287-1.323-2.344-2.753-2.344c-1.972,0-3.142,1.838-3.142,4.297c0,2.251,1.039,4.111,3.098,4.111
			c1.279,0,2.45-0.896,2.797-2.412c0.065-0.276,0.087-0.551,0.087-0.872V147.824z"/>
		<path fill="#FFFFFF" d="M392.097,148.766c0,4.111-2.689,5.903-5.225,5.903c-2.839,0-5.028-2.205-5.028-5.72
			c0-3.722,2.298-5.903,5.202-5.903C390.059,143.045,392.097,145.365,392.097,148.766z M383.774,148.88
			c0,2.436,1.321,4.274,3.185,4.274c1.821,0,3.187-1.814,3.187-4.319c0-1.884-0.889-4.272-3.143-4.272
			S383.774,146.767,383.774,148.88z"/>
		<path fill="#FFFFFF" d="M394.502,146.307c0-1.148-0.021-2.09-0.087-3.009h1.669l0.087,1.792h0.065
			c0.586-1.057,1.561-2.045,3.295-2.045c1.431,0,2.515,0.918,2.969,2.228h0.043c0.325-0.62,0.738-1.103,1.171-1.447
			c0.628-0.506,1.321-0.781,2.319-0.781c1.387,0,3.446,0.964,3.446,4.824v6.547h-1.864v-6.295c0-2.136-0.736-3.423-2.275-3.423
			c-1.084,0-1.93,0.85-2.254,1.838c-0.087,0.276-0.153,0.644-0.153,1.011v6.869h-1.864v-6.662c0-1.769-0.736-3.056-2.188-3.056
			c-1.192,0-2.059,1.011-2.363,2.022c-0.108,0.298-0.151,0.642-0.151,0.988v6.708h-1.864V146.307z"/>
	</g>
</g>
</svg>
